<svg width="218" height="24" viewBox="0 0 218 24" fill="none" xmlns="http://www.w3.org/2000/svg">
<g clip-path="url(#clip0_2343_32336)">
<path d="M5.13347 18.75L0.13916 1.2955H4.17039L7.05962 13.4234H7.20452L10.392 1.2955H13.8437L17.0227 13.4489H17.1761L20.0653 1.2955H24.0965L19.1022 18.75H15.5056L12.1818 7.33812H12.0454L8.73005 18.75H5.13347ZM30.0832 19.0057C28.7366 19.0057 27.5775 18.733 26.6059 18.1875C25.64 17.6364 24.8957 16.858 24.373 15.8523C23.8502 14.841 23.5888 13.6449 23.5888 12.2642C23.5888 10.9176 23.8502 9.73583 24.373 8.7188C24.8957 7.70176 25.6315 6.90912 26.5803 6.34096C27.5349 5.77276 28.6542 5.4887 29.9383 5.4887C30.8019 5.4887 31.6059 5.6279 32.3502 5.9063C33.1002 6.17903 33.7536 6.59097 34.3105 7.14211C34.873 7.69325 35.3104 8.3864 35.623 9.22163C35.9354 10.0512 36.0917 11.0228 36.0917 12.1364V13.1336H25.0377V10.8836H32.6741C32.6741 10.3608 32.5604 9.89776 32.3331 9.49437C32.1059 9.09095 31.7906 8.77561 31.3871 8.54836C30.9894 8.31537 30.5263 8.1989 29.998 8.1989C29.4468 8.1989 28.9582 8.32673 28.532 8.58245C28.1116 8.83242 27.782 9.17048 27.5434 9.59663C27.3047 10.0171 27.1826 10.4858 27.1769 11.0029V13.1421C27.1769 13.7898 27.2962 14.3495 27.5349 14.8211C27.7792 15.2927 28.123 15.6563 28.5661 15.912C29.0093 16.1676 29.5349 16.2955 30.1428 16.2955C30.5462 16.2955 30.9155 16.2387 31.2508 16.125C31.586 16.0114 31.873 15.8409 32.1116 15.6137C32.3502 15.3864 32.532 15.108 32.657 14.7785L36.015 15C35.8445 15.8069 35.4951 16.5114 34.9667 17.1137C34.444 17.7103 33.7678 18.1762 32.9383 18.5114C32.1144 18.8409 31.1627 19.0057 30.0832 19.0057ZM42.805 18.9631C41.8105 18.9631 40.9101 18.7074 40.1031 18.1961C39.3021 17.679 38.6657 16.9205 38.194 15.9205C37.7282 14.9148 37.4952 13.6818 37.4952 12.2216C37.4952 10.7216 37.7368 9.4745 38.2198 8.48015C38.7024 7.48017 39.3448 6.73298 40.1458 6.2387C40.9524 5.73867 41.8359 5.4887 42.7963 5.4887C43.5294 5.4887 44.1399 5.61368 44.6286 5.8637C45.1232 6.10801 45.5207 6.41483 45.8218 6.78413C46.1286 7.14777 46.3618 7.50575 46.5208 7.85798H46.6314V1.2955H50.2536V18.75H46.6742V16.6535H46.5208C46.3502 17.0171 46.1087 17.3779 45.7963 17.7359C45.4896 18.0881 45.0891 18.3807 44.5948 18.6137C44.1058 18.8466 43.5096 18.9631 42.805 18.9631ZM43.9554 16.0739C44.5408 16.0739 45.0351 15.9148 45.4386 15.5966C45.8473 15.2728 46.1601 14.8211 46.3761 14.2415C46.5973 13.662 46.7083 12.983 46.7083 12.2046C46.7083 11.4262 46.6003 10.7501 46.3843 10.1762C46.1683 9.60233 45.8559 9.15912 45.4468 8.84663C45.0377 8.53415 44.5408 8.37788 43.9554 8.37788C43.3588 8.37788 42.8559 8.53981 42.4468 8.8637C42.0377 9.18755 41.7283 9.63642 41.5179 10.2103C41.3076 10.7841 41.2026 11.4489 41.2026 12.2046C41.2026 12.966 41.3076 13.6392 41.5179 14.2245C41.7339 14.804 42.0433 15.2586 42.4468 15.5881C42.8559 15.912 43.3588 16.0739 43.9554 16.0739ZM57.5826 18.9631C56.5884 18.9631 55.6877 18.7074 54.8811 18.1961C54.0797 17.679 53.4433 16.9205 52.9719 15.9205C52.5058 14.9148 52.2729 13.6818 52.2729 12.2216C52.2729 10.7216 52.5144 9.4745 52.9974 8.48015C53.4804 7.48017 54.1225 6.73298 54.9235 6.2387C55.7304 5.73867 56.6139 5.4887 57.5743 5.4887C58.3071 5.4887 58.9179 5.61368 59.4066 5.8637C59.9008 6.10801 60.2987 6.41483 60.5998 6.78413C60.9066 7.14777 61.1394 7.50575 61.2984 7.85798H61.4094V1.2955H65.0316V18.75H61.4518V16.6535H61.2984C61.1282 17.0171 60.8867 17.3779 60.5743 17.7359C60.2672 18.0881 59.8667 18.3807 59.3724 18.6137C58.8838 18.8466 58.2872 18.9631 57.5826 18.9631ZM58.7331 16.0739C59.3185 16.0739 59.8127 15.9148 60.2162 15.5966C60.6253 15.2728 60.9377 14.8211 61.1537 14.2415C61.3753 13.662 61.4859 12.983 61.4859 12.2046C61.4859 11.4262 61.3779 10.7501 61.1623 10.1762C60.9463 9.60233 60.6339 9.15912 60.2248 8.84663C59.8157 8.53415 59.3185 8.37788 58.7331 8.37788C58.1368 8.37788 57.6339 8.53981 57.2248 8.8637C56.8157 9.18755 56.506 9.63642 56.2956 10.2103C56.0856 10.7841 55.9806 11.4489 55.9806 12.2046C55.9806 12.966 56.0856 13.6392 56.2956 14.2245C56.5116 14.804 56.8213 15.2586 57.2248 15.5881C57.6339 15.912 58.1368 16.0739 58.7331 16.0739ZM67.5366 18.75V5.65913H71.1673V18.75H67.5366ZM69.3606 3.97163C68.8206 3.97163 68.3578 3.79265 67.9712 3.4347C67.5906 3.07107 67.4004 2.63641 67.4004 2.13073C67.4004 1.63073 67.5906 1.20175 67.9712 0.843795C68.3578 0.480158 68.8206 0.29834 69.3606 0.29834C69.9002 0.29834 70.3603 0.480158 70.7413 0.843795C71.1276 1.20175 71.3207 1.63073 71.3207 2.13073C71.3207 2.63641 71.1276 3.07107 70.7413 3.4347C70.3603 3.79265 69.9002 3.97163 69.3606 3.97163ZM77.2262 11.1819V18.75H73.5958V5.65913H77.0559V7.9688H77.2093C77.4992 7.20743 77.9848 6.60515 78.6666 6.16197C79.3487 5.7131 80.1752 5.4887 81.1468 5.4887C82.0558 5.4887 82.8486 5.68756 83.5247 6.08528C84.2008 6.48301 84.7262 7.05117 85.1012 7.78981C85.4762 8.52278 85.6637 9.39777 85.6637 10.4148V18.75H82.0333V11.0625C82.0389 10.2614 81.8342 9.63642 81.4194 9.18755C81.0047 8.73301 80.4336 8.50572 79.7064 8.50572C79.2178 8.50572 78.7862 8.61083 78.4112 8.82106C78.0418 9.03128 77.7519 9.33811 77.5416 9.74153C77.3372 10.1393 77.2322 10.6194 77.2262 11.1819ZM93.9429 23.9319C92.7669 23.9319 91.7586 23.7699 90.9174 23.4461C90.0823 23.1279 89.4174 22.6933 88.9232 22.1421C88.4289 21.591 88.1079 20.9716 87.9602 20.2841L91.3179 19.8324C91.4203 20.0938 91.5823 20.3381 91.8039 20.5654C92.0256 20.7927 92.3181 20.9745 92.6818 21.1109C93.0512 21.2529 93.5001 21.3239 94.0284 21.3239C94.8182 21.3239 95.4688 21.1307 95.9799 20.7444C96.4971 20.3637 96.7554 19.7245 96.7554 18.8267V16.4319H96.6021C96.4431 16.7955 96.2046 17.1392 95.8862 17.4631C95.5682 17.787 95.1591 18.0512 94.6592 18.2557C94.1589 18.4603 93.5623 18.5625 92.8693 18.5625C91.8864 18.5625 90.9913 18.3353 90.1847 17.8807C89.3833 17.4205 88.7443 16.7188 88.2669 15.7756C87.7952 14.8268 87.5597 13.6279 87.5597 12.179C87.5597 10.6961 87.8012 9.45743 88.2842 8.46312C88.7668 7.46881 89.4092 6.72447 90.2102 6.23015C91.0168 5.73586 91.9003 5.4887 92.8607 5.4887C93.5938 5.4887 94.2073 5.61368 94.7016 5.8637C95.1958 6.10801 95.5937 6.41483 95.8948 6.78413C96.2016 7.14777 96.4374 7.50575 96.6021 7.85798H96.7386V5.65913H100.344V18.8779C100.344 19.9915 100.071 20.9234 99.5256 21.6734C98.9799 22.4234 98.2243 22.9859 97.2583 23.3609C96.2983 23.7415 95.1932 23.9319 93.9429 23.9319ZM94.0198 15.8353C94.6052 15.8353 95.0994 15.6904 95.5029 15.4006C95.9117 15.1052 96.2244 14.6847 96.4404 14.1392C96.6617 13.5881 96.7727 12.929 96.7727 12.162C96.7727 11.3949 96.6647 10.7301 96.4487 10.1676C96.2327 9.59948 95.9203 9.15912 95.5112 8.84663C95.1021 8.53415 94.6052 8.37788 94.0198 8.37788C93.4232 8.37788 92.9203 8.53981 92.5112 8.8637C92.1021 9.18185 91.7927 9.62506 91.5823 10.1932C91.3719 10.7614 91.2669 11.4177 91.2669 12.162C91.2669 12.9177 91.3719 13.5711 91.5823 14.1222C91.7983 14.6676 92.1077 15.0909 92.5112 15.3921C92.9203 15.6875 93.4232 15.8353 94.0198 15.8353ZM102.753 18.75V5.65913H106.384V18.75H102.753ZM104.577 3.97163C104.037 3.97163 103.574 3.79265 103.187 3.4347C102.807 3.07107 102.617 2.63641 102.617 2.13073C102.617 1.63073 102.807 1.20175 103.187 0.843795C103.574 0.480158 104.037 0.29834 104.577 0.29834C105.116 0.29834 105.577 0.480158 105.958 0.843795C106.344 1.20175 106.537 1.63073 106.537 2.13073C106.537 2.63641 106.344 3.07107 105.958 3.4347C105.577 3.79265 105.116 3.97163 104.577 3.97163ZM112.442 11.1819V18.75H108.812V5.65913H112.272V7.9688H112.426C112.715 7.20743 113.201 6.60515 113.883 6.16197C114.565 5.7131 115.391 5.4887 116.363 5.4887C117.272 5.4887 118.065 5.68756 118.741 6.08528C119.417 6.48301 119.942 7.05117 120.317 7.78981C120.692 8.52278 120.88 9.39777 120.88 10.4148V18.75H117.25V11.0625C117.255 10.2614 117.05 9.63642 116.636 9.18755C116.221 8.73301 115.65 8.50572 114.923 8.50572C114.434 8.50572 114.002 8.61083 113.627 8.82106C113.258 9.03128 112.968 9.33811 112.758 9.74153C112.553 10.1393 112.448 10.6194 112.442 11.1819ZM121.564 4.33812V1.2955H135.899V4.33812H130.555V18.75H126.907V4.33812H121.564ZM141.342 11.1819V18.75H137.711V1.2955H141.24V7.9688H141.393C141.689 7.19607 142.166 6.59097 142.825 6.15346C143.484 5.71028 144.311 5.4887 145.305 5.4887C146.214 5.4887 147.007 5.68756 147.683 6.08528C148.365 6.47731 148.893 7.04266 149.268 7.7813C149.649 8.51423 149.836 9.39211 149.831 10.4148V18.75H146.2V11.0625C146.206 10.2557 146.001 9.62787 145.586 9.17903C145.177 8.73016 144.603 8.50572 143.865 8.50572C143.371 8.50572 142.933 8.61083 142.552 8.82106C142.177 9.03128 141.882 9.33811 141.666 9.74153C141.455 10.1393 141.348 10.6194 141.342 11.1819ZM155.941 18.9972C155.105 18.9972 154.361 18.8523 153.708 18.5625C153.055 18.2671 152.537 17.8324 152.157 17.2586C151.782 16.679 151.594 15.9574 151.594 15.0938C151.594 14.3665 151.728 13.7557 151.995 13.2614C152.262 12.7671 152.626 12.3693 153.086 12.0682C153.546 11.7671 154.069 11.5398 154.654 11.3864C155.245 11.233 155.864 11.1251 156.512 11.0625C157.273 10.983 157.887 10.9091 158.353 10.841C158.819 10.7671 159.157 10.6591 159.367 10.5171C159.577 10.3751 159.682 10.1648 159.682 9.8864V9.83528C159.682 9.29551 159.512 8.87787 159.171 8.58245C158.836 8.28698 158.359 8.13923 157.739 8.13923C157.086 8.13923 156.566 8.28413 156.179 8.5739C155.793 8.858 155.537 9.21597 155.413 9.64778L152.054 9.37505C152.225 8.5796 152.56 7.89211 153.06 7.31255C153.56 6.72732 154.205 6.27845 154.995 5.96596C155.79 5.64777 156.711 5.4887 157.756 5.4887C158.483 5.4887 159.179 5.5739 159.844 5.74437C160.515 5.91481 161.108 6.17903 161.626 6.53697C162.148 6.89495 162.56 7.35515 162.861 7.91765C163.162 8.47448 163.313 9.1421 163.313 9.92048V18.75H159.87V16.9347H159.767C159.557 17.3438 159.276 17.7046 158.924 18.0171C158.572 18.3239 158.148 18.5654 157.654 18.7415C157.16 18.912 156.589 18.9972 155.941 18.9972ZM156.98 16.4915C157.515 16.4915 157.986 16.3864 158.395 16.1762C158.804 15.9603 159.125 15.6705 159.358 15.3069C159.592 14.9432 159.708 14.5313 159.708 14.0711V12.6819C159.594 12.7557 159.438 12.8239 159.239 12.8864C159.046 12.9432 158.827 12.9972 158.583 13.0484C158.339 13.0938 158.094 13.1364 157.85 13.1762C157.606 13.2103 157.384 13.2415 157.185 13.2699C156.759 13.3324 156.387 13.4319 156.069 13.5682C155.75 13.7046 155.503 13.8893 155.327 14.1222C155.151 14.3495 155.063 14.6336 155.063 14.9745C155.063 15.4688 155.242 15.8466 155.6 16.108C155.963 16.3637 156.424 16.4915 156.98 16.4915ZM165.65 18.75V5.65913H169.28V18.75H165.65ZM167.474 3.97163C166.934 3.97163 166.471 3.79265 166.084 3.4347C165.704 3.07107 165.514 2.63641 165.514 2.13073C165.514 1.63073 165.704 1.20175 166.084 0.843795C166.471 0.480158 166.934 0.29834 167.474 0.29834C168.013 0.29834 168.473 0.480158 168.854 0.843795C169.241 1.20175 169.434 1.63073 169.434 2.13073C169.434 2.63641 169.241 3.07107 168.854 3.4347C168.473 3.79265 168.013 3.97163 167.474 3.97163ZM175.339 1.2955V18.75H171.709V1.2955H175.339ZM181.501 18.9972C180.665 18.9972 179.921 18.8523 179.268 18.5625C178.615 18.2671 178.097 17.8324 177.717 17.2586C177.342 16.679 177.154 15.9574 177.154 15.0938C177.154 14.3665 177.288 13.7557 177.555 13.2614C177.822 12.7671 178.186 12.3693 178.646 12.0682C179.106 11.7671 179.629 11.5398 180.214 11.3864C180.805 11.233 181.424 11.1251 182.072 11.0625C182.833 10.983 183.447 10.9091 183.913 10.841C184.379 10.7671 184.717 10.6591 184.927 10.5171C185.137 10.3751 185.242 10.1648 185.242 9.8864V9.83528C185.242 9.29551 185.072 8.87787 184.731 8.58245C184.396 8.28698 183.919 8.13923 183.299 8.13923C182.646 8.13923 182.126 8.28413 181.739 8.5739C181.353 8.858 181.097 9.21597 180.973 9.64778L177.614 9.37505C177.785 8.5796 178.12 7.89211 178.62 7.31255C179.12 6.72732 179.765 6.27845 180.555 5.96596C181.35 5.64777 182.271 5.4887 183.316 5.4887C184.043 5.4887 184.739 5.5739 185.404 5.74437C186.075 5.91481 186.668 6.17903 187.186 6.53697C187.708 6.89495 188.12 7.35515 188.421 7.91765C188.722 8.47448 188.873 9.1421 188.873 9.92048V18.75H185.43V16.9347H185.327C185.117 17.3438 184.836 17.7046 184.484 18.0171C184.132 18.3239 183.708 18.5654 183.214 18.7415C182.72 18.912 182.149 18.9972 181.501 18.9972ZM182.54 16.4915C183.075 16.4915 183.546 16.3864 183.955 16.1762C184.364 15.9603 184.685 15.6705 184.918 15.3069C185.152 14.9432 185.268 14.5313 185.268 14.0711V12.6819C185.154 12.7557 184.998 12.8239 184.799 12.8864C184.606 12.9432 184.387 12.9972 184.143 13.0484C183.899 13.0938 183.654 13.1364 183.41 13.1762C183.166 13.2103 182.944 13.2415 182.745 13.2699C182.319 13.3324 181.947 13.4319 181.629 13.5682C181.31 13.7046 181.063 13.8893 180.887 14.1222C180.711 14.3495 180.623 14.6336 180.623 14.9745C180.623 15.4688 180.802 15.8466 181.16 16.108C181.523 16.3637 181.984 16.4915 182.54 16.4915ZM194.84 11.1819V18.75H191.21V5.65913H194.67V7.9688H194.823C195.113 7.20743 195.599 6.60515 196.281 6.16197C196.963 5.7131 197.789 5.4887 198.761 5.4887C199.67 5.4887 200.462 5.68756 201.139 6.08528C201.815 6.48301 202.34 7.05117 202.715 7.78981C203.09 8.52278 203.278 9.39777 203.278 10.4148V18.75H199.647V11.0625C199.653 10.2614 199.448 9.63642 199.034 9.18755C198.619 8.73301 198.048 8.50572 197.321 8.50572C196.832 8.50572 196.4 8.61083 196.025 8.82106C195.656 9.03128 195.366 9.33811 195.156 9.74153C194.951 10.1393 194.846 10.6194 194.84 11.1819ZM210.483 18.9631C209.489 18.9631 208.588 18.7074 207.782 18.1961C206.98 17.679 206.344 16.9205 205.873 15.9205C205.406 14.9148 205.174 13.6818 205.174 12.2216C205.174 10.7216 205.415 9.4745 205.898 8.48015C206.381 7.48017 207.023 6.73298 207.824 6.2387C208.631 5.73867 209.515 5.4887 210.475 5.4887C211.208 5.4887 211.819 5.61368 212.307 5.8637C212.801 6.10801 213.199 6.41483 213.5 6.78413C213.807 7.14777 214.04 7.50575 214.199 7.85798H214.31V1.2955H217.932V18.75H214.352V16.6535H214.199C214.029 17.0171 213.787 17.3779 213.475 17.7359C213.168 18.0881 212.767 18.3807 212.273 18.6137C211.784 18.8466 211.188 18.9631 210.483 18.9631ZM211.634 16.0739C212.219 16.0739 212.713 15.9148 213.117 15.5966C213.526 15.2728 213.838 14.8211 214.054 14.2415C214.276 13.662 214.387 12.983 214.387 12.2046C214.387 11.4262 214.279 10.7501 214.063 10.1762C213.847 9.60233 213.535 9.15912 213.125 8.84663C212.716 8.53415 212.219 8.37788 211.634 8.37788C211.037 8.37788 210.535 8.53981 210.125 8.8637C209.716 9.18755 209.407 9.63642 209.196 10.2103C208.986 10.7841 208.881 11.4489 208.881 12.2046C208.881 12.966 208.986 13.6392 209.196 14.2245C209.412 14.804 209.722 15.2586 210.125 15.5881C210.535 15.912 211.037 16.0739 211.634 16.0739Z" fill="#017DA9"/>
</g>
<defs>
<clipPath id="clip0_2343_32336">
<rect width="217.875" height="24" fill="white" transform="translate(0.0625)"/>
</clipPath>
</defs>
</svg>
