<svg width="17" height="16" viewBox="0 0 17 16" fill="none" xmlns="http://www.w3.org/2000/svg">
<path d="M8.49967 8V12M8.49967 12L10.4997 10.6667M8.49967 12L6.49967 10.6667M9.16634 2.00058C9.10268 2 9.0312 2 8.94948 2H5.96647C5.21973 2 4.84609 2 4.56087 2.14532C4.30999 2.27316 4.10616 2.47698 3.97833 2.72786C3.83301 3.01308 3.83301 3.38673 3.83301 4.13346V11.8668C3.83301 12.6135 3.83301 12.9867 3.97833 13.2719C4.10616 13.5228 4.30999 13.727 4.56087 13.8548C4.84581 14 5.219 14 5.96428 14H11.0351C11.7803 14 12.153 14 12.4379 13.8548C12.6888 13.727 12.8933 13.5228 13.0212 13.2719C13.1663 12.987 13.1663 12.6143 13.1663 11.8691V6.21712C13.1663 6.13531 13.1663 6.06374 13.1657 6M9.16634 2.00058C9.35677 2.00231 9.47723 2.00923 9.59224 2.03684C9.72828 2.0695 9.85824 2.12351 9.97754 2.19661C10.1121 2.27904 10.2276 2.39455 10.458 2.625L12.5417 4.70866C12.7723 4.93926 12.8869 5.05424 12.9694 5.1888C13.0425 5.30809 13.0966 5.43817 13.1292 5.57422C13.1568 5.68917 13.1639 5.80967 13.1657 6M9.16634 2.00058V3.86667C9.16634 4.6134 9.16634 4.98651 9.31167 5.27173C9.4395 5.52261 9.64332 5.72699 9.89421 5.85482C10.1791 6 10.5523 6 11.2976 6H13.1657M13.1657 6H13.1665" stroke="#017DA9" stroke-linecap="round" stroke-linejoin="round"/>
</svg>
