<svg width="17" height="16" viewBox="0 0 17 16" fill="none" xmlns="http://www.w3.org/2000/svg">
<path d="M2.50003 11.3327C2.5 11.2897 2.5 11.2453 2.5 11.1995V4.79948C2.5 4.05274 2.5 3.6791 2.64532 3.39388C2.77316 3.143 2.97698 2.93917 3.22786 2.81134C3.51308 2.66602 3.88673 2.66602 4.63346 2.66602H12.3668C13.1135 2.66602 13.4867 2.66602 13.7719 2.81134C14.0228 2.93917 14.227 3.143 14.3548 3.39388C14.5 3.67882 14.5 4.05201 14.5 4.79729V11.2014C14.5 11.5247 14.5 11.778 14.4881 11.9843M2.50003 11.3327C2.50055 11.9916 2.50891 12.3366 2.64532 12.6043C2.77316 12.8552 2.97698 13.0597 3.22786 13.1875C3.5128 13.3327 3.886 13.3327 4.63127 13.3327H12.3691C13.1143 13.3327 13.487 13.3327 13.7719 13.1875C14.0228 13.0597 14.227 12.8552 14.3548 12.6043C14.437 12.443 14.4727 12.2535 14.4881 11.9843M2.50003 11.3327L5.67865 7.62435L5.67959 7.62332C5.96151 7.29441 6.10271 7.12969 6.27018 7.07031C6.41729 7.01816 6.57791 7.01937 6.72428 7.07357C6.89109 7.13533 7.03004 7.30193 7.30794 7.63542L9.08872 9.77235C9.34597 10.0811 9.47534 10.2363 9.63242 10.2986C9.77097 10.3536 9.92377 10.3598 10.0667 10.3176C10.2295 10.2695 10.3727 10.1263 10.6592 9.83984L10.9906 9.50846C11.2822 9.2168 11.4281 9.07108 11.5931 9.02344C11.7381 8.9816 11.8931 8.99058 12.0326 9.04818C12.1913 9.11375 12.3201 9.27427 12.5778 9.59635L14.4881 11.9843M14.4881 11.9843L14.5 11.9991M10.5 6.66602C10.1318 6.66602 9.83333 6.36754 9.83333 5.99935C9.83333 5.63116 10.1318 5.33268 10.5 5.33268C10.8682 5.33268 11.1667 5.63116 11.1667 5.99935C11.1667 6.36754 10.8682 6.66602 10.5 6.66602Z" stroke="white" stroke-linecap="round" stroke-linejoin="round"/>
</svg>
