<svg width="25" height="24" viewBox="0 0 25 24" fill="none" xmlns="http://www.w3.org/2000/svg">
<path d="M5.5 17.3336V6.66698C5.5 5.78742 5.5 5.34715 5.68509 5.08691C5.84664 4.85977 6.09564 4.71064 6.37207 4.67499C6.68868 4.63415 7.07701 4.84126 7.85254 5.25487L17.8525 10.5882L17.8562 10.5898C18.7132 11.0469 19.142 11.2756 19.2826 11.5803C19.4053 11.8462 19.4053 12.1531 19.2826 12.4189C19.1418 12.7241 18.712 12.9537 17.8525 13.4121L7.85254 18.7454C7.07645 19.1593 6.6888 19.3657 6.37207 19.3248C6.09564 19.2891 5.84664 19.1401 5.68509 18.9129C5.5 18.6527 5.5 18.2132 5.5 17.3336Z" stroke="white" stroke-linecap="round" stroke-linejoin="round"/>
</svg>
